<svg version="1.1" viewBox="0.0 0.0 192.0 192.0" fill="none" stroke="none" stroke-linecap="square" stroke-miterlimit="10" xmlns:xlink="http://www.w3.org/1999/xlink" xmlns="http://www.w3.org/2000/svg"><clipPath id="p.0"><path d="m0 0l192.0 0l0 192.0l-192.0 0l0 -192.0z" clip-rule="nonzero"/></clipPath><g clip-path="url(#p.0)"><path fill="#000000" fill-opacity="0.0" d="m0 0l192.0 0l0 192.0l-192.0 0z" fill-rule="evenodd"/><g filter="url(#shadowFilter-p.1)"><use xlink:href="#p.1" transform="matrix(1.0 0.0 0.0 1.0 0.0 2.0)"/></g><defs><filter id="shadowFilter-p.1" filterUnits="userSpaceOnUse"><feGaussianBlur in="SourceAlpha" stdDeviation="2.0" result="blur"/><feComponentTransfer in="blur" color-interpolation-filters="sRGB"><feFuncR type="linear" slope="0" intercept="0.0"/><feFuncG type="linear" slope="0" intercept="0.0"/><feFuncB type="linear" slope="0" intercept="0.0"/><feFuncA type="linear" slope="0.5" intercept="0"/></feComponentTransfer></filter></defs><g id="p.1"><path fill="#000000" fill-opacity="0.0" d="m96.0 16.0l-80.0 80.0" fill-rule="evenodd"/><path stroke="#4a86e8" stroke-width="8.0" stroke-linejoin="round" stroke-linecap="butt" d="m96.0 16.0l-80.0 80.0" fill-rule="evenodd"/></g><g filter="url(#shadowFilter-p.2)"><use xlink:href="#p.2" transform="matrix(1.0 0.0 0.0 1.0 0.0 2.0)"/></g><defs><filter id="shadowFilter-p.2" filterUnits="userSpaceOnUse"><feGaussianBlur in="SourceAlpha" stdDeviation="2.0" result="blur"/><feComponentTransfer in="blur" color-interpolation-filters="sRGB"><feFuncR type="linear" slope="0" intercept="0.0"/><feFuncG type="linear" slope="0" intercept="0.0"/><feFuncB type="linear" slope="0" intercept="0.0"/><feFuncA type="linear" slope="0.5" intercept="0"/></feComponentTransfer></filter></defs><g id="p.2"><path fill="#000000" fill-opacity="0.0" d="m16.0 96.0l80.0 80.0" fill-rule="evenodd"/><path stroke="#4a86e8" stroke-width="8.0" stroke-linejoin="round" stroke-linecap="butt" d="m16.0 96.0l80.0 80.0" fill-rule="evenodd"/></g><g filter="url(#shadowFilter-p.3)"><use xlink:href="#p.3" transform="matrix(1.0 0.0 0.0 1.0 0.0 2.0)"/></g><defs><filter id="shadowFilter-p.3" filterUnits="userSpaceOnUse"><feGaussianBlur in="SourceAlpha" stdDeviation="2.0" result="blur"/><feComponentTransfer in="blur" color-interpolation-filters="sRGB"><feFuncR type="linear" slope="0" intercept="0.0"/><feFuncG type="linear" slope="0" intercept="0.0"/><feFuncB type="linear" slope="0" intercept="0.0"/><feFuncA type="linear" slope="0.5" intercept="0"/></feComponentTransfer></filter></defs><g id="p.3"><path fill="#000000" fill-opacity="0.0" d="m96.0 96.0l80.0 -80.0" fill-rule="evenodd"/><path stroke="#4a86e8" stroke-width="8.0" stroke-linejoin="round" stroke-linecap="butt" d="m96.0 96.0l80.0 -80.0" fill-rule="evenodd"/></g><g filter="url(#shadowFilter-p.4)"><use xlink:href="#p.4" transform="matrix(1.0 0.0 0.0 1.0 0.0 2.0)"/></g><defs><filter id="shadowFilter-p.4" filterUnits="userSpaceOnUse"><feGaussianBlur in="SourceAlpha" stdDeviation="2.0" result="blur"/><feComponentTransfer in="blur" color-interpolation-filters="sRGB"><feFuncR type="linear" slope="0" intercept="0.0"/><feFuncG type="linear" slope="0" intercept="0.0"/><feFuncB type="linear" slope="0" intercept="0.0"/><feFuncA type="linear" slope="0.5" intercept="0"/></feComponentTransfer></filter></defs><g id="p.4"><path fill="#000000" fill-opacity="0.0" d="m96.0 96.0l80.0 80.0" fill-rule="evenodd"/><path stroke="#4a86e8" stroke-width="8.0" stroke-linejoin="round" stroke-linecap="butt" d="m96.0 96.0l80.0 80.0" fill-rule="evenodd"/></g><g filter="url(#shadowFilter-p.5)"><use xlink:href="#p.5" transform="matrix(1.0 0.0 0.0 1.0 0.0 2.0)"/></g><defs><filter id="shadowFilter-p.5" filterUnits="userSpaceOnUse"><feGaussianBlur in="SourceAlpha" stdDeviation="2.0" result="blur"/><feComponentTransfer in="blur" color-interpolation-filters="sRGB"><feFuncR type="linear" slope="0" intercept="0.0"/><feFuncG type="linear" slope="0" intercept="0.0"/><feFuncB type="linear" slope="0" intercept="0.0"/><feFuncA type="linear" slope="0.5" intercept="0"/></feComponentTransfer></filter></defs><g id="p.5"><path fill="#4a86e8" d="m88.0 16.0l0 0c0 -4.4182777 3.5817184 -8.0 8.0 -8.0l0 0c2.1217346 0 4.156563 0.8428545 5.6568527 2.3431454c1.5002899 1.5002918 2.3431473 3.5351229 2.3431473 5.6568546l0 0c0 4.4182777 -3.5817184 8.0 -8.0 8.0l0 0c-4.4182816 0 -8.0 -3.5817223 -8.0 -8.0z" fill-rule="evenodd"/></g><g filter="url(#shadowFilter-p.6)"><use xlink:href="#p.6" transform="matrix(1.0 0.0 0.0 1.0 0.0 2.0)"/></g><defs><filter id="shadowFilter-p.6" filterUnits="userSpaceOnUse"><feGaussianBlur in="SourceAlpha" stdDeviation="2.0" result="blur"/><feComponentTransfer in="blur" color-interpolation-filters="sRGB"><feFuncR type="linear" slope="0" intercept="0.0"/><feFuncG type="linear" slope="0" intercept="0.0"/><feFuncB type="linear" slope="0" intercept="0.0"/><feFuncA type="linear" slope="0.5" intercept="0"/></feComponentTransfer></filter></defs><g id="p.6"><path fill="#4a86e8" d="m88.0 176.0l0 0c0 -4.418274 3.5817184 -8.0 8.0 -8.0l0 0c2.1217346 0 4.156563 0.84284973 5.6568527 2.3431396c1.5002899 1.5002899 2.3431473 3.5351257 2.3431473 5.6568604l0 0c0 4.418274 -3.5817184 8.0 -8.0 8.0l0 0c-4.4182816 0 -8.0 -3.581726 -8.0 -8.0z" fill-rule="evenodd"/></g><g filter="url(#shadowFilter-p.7)"><use xlink:href="#p.7" transform="matrix(1.0 0.0 0.0 1.0 0.0 2.0)"/></g><defs><filter id="shadowFilter-p.7" filterUnits="userSpaceOnUse"><feGaussianBlur in="SourceAlpha" stdDeviation="2.0" result="blur"/><feComponentTransfer in="blur" color-interpolation-filters="sRGB"><feFuncR type="linear" slope="0" intercept="0.0"/><feFuncG type="linear" slope="0" intercept="0.0"/><feFuncB type="linear" slope="0" intercept="0.0"/><feFuncA type="linear" slope="0.5" intercept="0"/></feComponentTransfer></filter></defs><g id="p.7"><path fill="#4a86e8" d="m168.0 16.0l0 0c0 -4.4182777 3.581726 -8.0 8.0 -8.0l0 0c2.1217346 0 4.1565704 0.8428545 5.6568604 2.3431454c1.5002899 1.5002918 2.3431396 3.5351229 2.3431396 5.6568546l0 0c0 4.4182777 -3.581726 8.0 -8.0 8.0l0 0c-4.418274 0 -8.0 -3.5817223 -8.0 -8.0z" fill-rule="evenodd"/></g><g filter="url(#shadowFilter-p.8)"><use xlink:href="#p.8" transform="matrix(1.0 0.0 0.0 1.0 0.0 2.0)"/></g><defs><filter id="shadowFilter-p.8" filterUnits="userSpaceOnUse"><feGaussianBlur in="SourceAlpha" stdDeviation="2.0" result="blur"/><feComponentTransfer in="blur" color-interpolation-filters="sRGB"><feFuncR type="linear" slope="0" intercept="0.0"/><feFuncG type="linear" slope="0" intercept="0.0"/><feFuncB type="linear" slope="0" intercept="0.0"/><feFuncA type="linear" slope="0.5" intercept="0"/></feComponentTransfer></filter></defs><g id="p.8"><path fill="#4a86e8" d="m168.0 176.0l0 0c0 -4.418274 3.581726 -8.0 8.0 -8.0l0 0c2.1217346 0 4.1565704 0.84284973 5.6568604 2.3431396c1.5002899 1.5002899 2.3431396 3.5351257 2.3431396 5.6568604l0 0c0 4.418274 -3.581726 8.0 -8.0 8.0l0 0c-4.418274 0 -8.0 -3.581726 -8.0 -8.0z" fill-rule="evenodd"/></g><g filter="url(#shadowFilter-p.9)"><use xlink:href="#p.9" transform="matrix(1.0 0.0 0.0 1.0 0.0 2.0)"/></g><defs><filter id="shadowFilter-p.9" filterUnits="userSpaceOnUse"><feGaussianBlur in="SourceAlpha" stdDeviation="2.0" result="blur"/><feComponentTransfer in="blur" color-interpolation-filters="sRGB"><feFuncR type="linear" slope="0" intercept="0.0"/><feFuncG type="linear" slope="0" intercept="0.0"/><feFuncB type="linear" slope="0" intercept="0.0"/><feFuncA type="linear" slope="0.5" intercept="0"/></feComponentTransfer></filter></defs><g id="p.9"><path fill="#4a86e8" d="m8.0 96.0l0 0c0 -4.4182816 3.5817223 -8.0 8.0 -8.0l0 0c2.1217327 0 4.156563 0.84285736 5.6568546 2.3431473c1.5002899 1.5002899 2.3431454 3.535118 2.3431454 5.6568527l0 0c0 4.4182816 -3.5817223 8.0 -8.0 8.0l0 0c-4.4182777 0 -8.0 -3.5817184 -8.0 -8.0z" fill-rule="evenodd"/></g><g filter="url(#shadowFilter-p.10)"><use xlink:href="#p.10" transform="matrix(1.0 0.0 0.0 1.0 0.0 2.0)"/></g><defs><filter id="shadowFilter-p.10" filterUnits="userSpaceOnUse"><feGaussianBlur in="SourceAlpha" stdDeviation="2.0" result="blur"/><feComponentTransfer in="blur" color-interpolation-filters="sRGB"><feFuncR type="linear" slope="0" intercept="0.0"/><feFuncG type="linear" slope="0" intercept="0.0"/><feFuncB type="linear" slope="0" intercept="0.0"/><feFuncA type="linear" slope="0.5" intercept="0"/></feComponentTransfer></filter></defs><g id="p.10"><path fill="#4a86e8" d="m88.0 96.0l0 0c0 -4.4182816 3.5817184 -8.0 8.0 -8.0l0 0c2.1217346 0 4.156563 0.84285736 5.6568527 2.3431473c1.5002899 1.5002899 2.3431473 3.535118 2.3431473 5.6568527l0 0c0 4.4182816 -3.5817184 8.0 -8.0 8.0l0 0c-4.4182816 0 -8.0 -3.5817184 -8.0 -8.0z" fill-rule="evenodd"/></g></g></svg>