<svg version="1.1" viewBox="0.0 0.0 288.0 288.0" fill="none" stroke="none" stroke-linecap="square" stroke-miterlimit="10" xmlns:xlink="http://www.w3.org/1999/xlink" xmlns="http://www.w3.org/2000/svg"><clipPath id="p.0"><path d="m0 0l288.0 0l0 288.0l-288.0 0l0 -288.0z" clip-rule="nonzero"/></clipPath><g clip-path="url(#p.0)"><path fill="#000000" fill-opacity="0.0" d="m0 0l288.0 0l0 288.0l-288.0 0z" fill-rule="evenodd"/><g filter="url(#shadowFilter-p.1)"><use xlink:href="#p.1" transform="matrix(1.0 0.0 0.0 1.0 0.0 2.0)"/></g><defs><filter id="shadowFilter-p.1" filterUnits="userSpaceOnUse"><feGaussianBlur in="SourceAlpha" stdDeviation="2.0" result="blur"/><feComponentTransfer in="blur" color-interpolation-filters="sRGB"><feFuncR type="linear" slope="0" intercept="0.0"/><feFuncG type="linear" slope="0" intercept="0.0"/><feFuncB type="linear" slope="0" intercept="0.0"/><feFuncA type="linear" slope="0.5" intercept="0"/></feComponentTransfer></filter></defs><g id="p.1"><path fill="#000000" fill-opacity="0.0" d="m144.0 40.884514l-80.0 80.0" fill-rule="evenodd"/><path stroke="#4a86e8" stroke-width="24.0" stroke-linejoin="round" stroke-linecap="butt" d="m144.0 40.884514l-80.0 80.0" fill-rule="evenodd"/></g><g filter="url(#shadowFilter-p.2)"><use xlink:href="#p.2" transform="matrix(1.0 0.0 0.0 1.0 0.0 2.0)"/></g><defs><filter id="shadowFilter-p.2" filterUnits="userSpaceOnUse"><feGaussianBlur in="SourceAlpha" stdDeviation="2.0" result="blur"/><feComponentTransfer in="blur" color-interpolation-filters="sRGB"><feFuncR type="linear" slope="0" intercept="0.0"/><feFuncG type="linear" slope="0" intercept="0.0"/><feFuncB type="linear" slope="0" intercept="0.0"/><feFuncA type="linear" slope="0.5" intercept="0"/></feComponentTransfer></filter></defs><g id="p.2"><path fill="#000000" fill-opacity="0.0" d="m64.0 120.884514l80.0 80.00001" fill-rule="evenodd"/><path stroke="#4a86e8" stroke-width="24.0" stroke-linejoin="round" stroke-linecap="butt" d="m64.0 120.884514l80.0 80.00001" fill-rule="evenodd"/></g><g filter="url(#shadowFilter-p.3)"><use xlink:href="#p.3" transform="matrix(1.0 0.0 0.0 1.0 0.0 2.0)"/></g><defs><filter id="shadowFilter-p.3" filterUnits="userSpaceOnUse"><feGaussianBlur in="SourceAlpha" stdDeviation="2.0" result="blur"/><feComponentTransfer in="blur" color-interpolation-filters="sRGB"><feFuncR type="linear" slope="0" intercept="0.0"/><feFuncG type="linear" slope="0" intercept="0.0"/><feFuncB type="linear" slope="0" intercept="0.0"/><feFuncA type="linear" slope="0.5" intercept="0"/></feComponentTransfer></filter></defs><g id="p.3"><path fill="#000000" fill-opacity="0.0" d="m144.0 120.884514l80.0 -80.0" fill-rule="evenodd"/><path stroke="#4a86e8" stroke-width="24.0" stroke-linejoin="round" stroke-linecap="butt" d="m144.0 120.884514l80.0 -80.0" fill-rule="evenodd"/></g><g filter="url(#shadowFilter-p.4)"><use xlink:href="#p.4" transform="matrix(1.0 0.0 0.0 1.0 0.0 2.0)"/></g><defs><filter id="shadowFilter-p.4" filterUnits="userSpaceOnUse"><feGaussianBlur in="SourceAlpha" stdDeviation="2.0" result="blur"/><feComponentTransfer in="blur" color-interpolation-filters="sRGB"><feFuncR type="linear" slope="0" intercept="0.0"/><feFuncG type="linear" slope="0" intercept="0.0"/><feFuncB type="linear" slope="0" intercept="0.0"/><feFuncA type="linear" slope="0.5" intercept="0"/></feComponentTransfer></filter></defs><g id="p.4"><path fill="#000000" fill-opacity="0.0" d="m144.0 120.884514l80.0 80.00001" fill-rule="evenodd"/><path stroke="#4a86e8" stroke-width="24.0" stroke-linejoin="round" stroke-linecap="butt" d="m144.0 120.884514l80.0 80.00001" fill-rule="evenodd"/></g><g filter="url(#shadowFilter-p.5)"><use xlink:href="#p.5" transform="matrix(1.0 0.0 0.0 1.0 0.0 2.0)"/></g><defs><filter id="shadowFilter-p.5" filterUnits="userSpaceOnUse"><feGaussianBlur in="SourceAlpha" stdDeviation="2.0" result="blur"/><feComponentTransfer in="blur" color-interpolation-filters="sRGB"><feFuncR type="linear" slope="0" intercept="0.0"/><feFuncG type="linear" slope="0" intercept="0.0"/><feFuncB type="linear" slope="0" intercept="0.0"/><feFuncA type="linear" slope="0.5" intercept="0"/></feComponentTransfer></filter></defs><g id="p.5"><path fill="#4a86e8" d="m128.0 40.884514l0 0c0 -8.8365555 7.163437 -16.0 16.0 -16.0l0 0c4.243469 0 8.313126 1.6857109 11.313705 4.6862926c3.0005798 3.0005817 4.6862946 7.0702457 4.6862946 11.313707l0 0c0 8.8365555 -7.163437 16.0 -16.0 16.0l0 0c-8.836563 0 -16.0 -7.1634445 -16.0 -16.0z" fill-rule="evenodd"/></g><g filter="url(#shadowFilter-p.6)"><use xlink:href="#p.6" transform="matrix(1.0 0.0 0.0 1.0 0.0 2.0)"/></g><defs><filter id="shadowFilter-p.6" filterUnits="userSpaceOnUse"><feGaussianBlur in="SourceAlpha" stdDeviation="2.0" result="blur"/><feComponentTransfer in="blur" color-interpolation-filters="sRGB"><feFuncR type="linear" slope="0" intercept="0.0"/><feFuncG type="linear" slope="0" intercept="0.0"/><feFuncB type="linear" slope="0" intercept="0.0"/><feFuncA type="linear" slope="0.5" intercept="0"/></feComponentTransfer></filter></defs><g id="p.6"><path fill="#4a86e8" d="m128.0 200.88452l0 0c0 -8.836563 7.163437 -16.0 16.0 -16.0l0 0c4.243469 0 8.313126 1.6856995 11.313705 4.6862793c3.0005798 3.0005798 4.6862946 7.0702515 4.6862946 11.313721l0 0c0 8.836548 -7.163437 16.0 -16.0 16.0l0 0c-8.836563 0 -16.0 -7.163452 -16.0 -16.0z" fill-rule="evenodd"/></g><g filter="url(#shadowFilter-p.7)"><use xlink:href="#p.7" transform="matrix(1.0 0.0 0.0 1.0 0.0 2.0)"/></g><defs><filter id="shadowFilter-p.7" filterUnits="userSpaceOnUse"><feGaussianBlur in="SourceAlpha" stdDeviation="2.0" result="blur"/><feComponentTransfer in="blur" color-interpolation-filters="sRGB"><feFuncR type="linear" slope="0" intercept="0.0"/><feFuncG type="linear" slope="0" intercept="0.0"/><feFuncB type="linear" slope="0" intercept="0.0"/><feFuncA type="linear" slope="0.5" intercept="0"/></feComponentTransfer></filter></defs><g id="p.7"><path fill="#4a86e8" d="m208.0 40.884514l0 0c0 -8.8365555 7.163437 -16.0 16.0 -16.0l0 0c4.243469 0 8.313126 1.6857109 11.313705 4.6862926c3.0005798 3.0005817 4.6862946 7.0702457 4.6862946 11.313707l0 0c0 8.8365555 -7.163437 16.0 -16.0 16.0l0 0c-8.836563 0 -16.0 -7.1634445 -16.0 -16.0z" fill-rule="evenodd"/></g><g filter="url(#shadowFilter-p.8)"><use xlink:href="#p.8" transform="matrix(1.0 0.0 0.0 1.0 0.0 2.0)"/></g><defs><filter id="shadowFilter-p.8" filterUnits="userSpaceOnUse"><feGaussianBlur in="SourceAlpha" stdDeviation="2.0" result="blur"/><feComponentTransfer in="blur" color-interpolation-filters="sRGB"><feFuncR type="linear" slope="0" intercept="0.0"/><feFuncG type="linear" slope="0" intercept="0.0"/><feFuncB type="linear" slope="0" intercept="0.0"/><feFuncA type="linear" slope="0.5" intercept="0"/></feComponentTransfer></filter></defs><g id="p.8"><path fill="#4a86e8" d="m208.0 200.88452l0 0c0 -8.836563 7.163437 -16.0 16.0 -16.0l0 0c4.243469 0 8.313126 1.6856995 11.313705 4.6862793c3.0005798 3.0005798 4.6862946 7.0702515 4.6862946 11.313721l0 0c0 8.836548 -7.163437 16.0 -16.0 16.0l0 0c-8.836563 0 -16.0 -7.163452 -16.0 -16.0z" fill-rule="evenodd"/></g><g filter="url(#shadowFilter-p.9)"><use xlink:href="#p.9" transform="matrix(1.0 0.0 0.0 1.0 0.0 2.0)"/></g><defs><filter id="shadowFilter-p.9" filterUnits="userSpaceOnUse"><feGaussianBlur in="SourceAlpha" stdDeviation="2.0" result="blur"/><feComponentTransfer in="blur" color-interpolation-filters="sRGB"><feFuncR type="linear" slope="0" intercept="0.0"/><feFuncG type="linear" slope="0" intercept="0.0"/><feFuncB type="linear" slope="0" intercept="0.0"/><feFuncA type="linear" slope="0.5" intercept="0"/></feComponentTransfer></filter></defs><g id="p.9"><path fill="#4a86e8" d="m48.0 120.884514l0 0c0 -8.8365555 7.1634445 -16.0 16.0 -16.0l0 0c4.2434616 0 8.313126 1.6857071 11.313705 4.6862946c3.0005875 3.0005798 4.6862946 7.070244 4.6862946 11.313705l0 0c0 8.8365555 -7.1634445 16.000008 -16.0 16.000008l0 0c-8.8365555 0 -16.0 -7.163452 -16.0 -16.000008z" fill-rule="evenodd"/></g><g filter="url(#shadowFilter-p.10)"><use xlink:href="#p.10" transform="matrix(1.0 0.0 0.0 1.0 0.0 2.0)"/></g><defs><filter id="shadowFilter-p.10" filterUnits="userSpaceOnUse"><feGaussianBlur in="SourceAlpha" stdDeviation="2.0" result="blur"/><feComponentTransfer in="blur" color-interpolation-filters="sRGB"><feFuncR type="linear" slope="0" intercept="0.0"/><feFuncG type="linear" slope="0" intercept="0.0"/><feFuncB type="linear" slope="0" intercept="0.0"/><feFuncA type="linear" slope="0.5" intercept="0"/></feComponentTransfer></filter></defs><g id="p.10"><path fill="#4a86e8" d="m128.0 120.884514l0 0c0 -8.8365555 7.163437 -16.0 16.0 -16.0l0 0c4.243469 0 8.313126 1.6857071 11.313705 4.6862946c3.0005798 3.0005798 4.6862946 7.070244 4.6862946 11.313705l0 0c0 8.8365555 -7.163437 16.000008 -16.0 16.000008l0 0c-8.836563 0 -16.0 -7.163452 -16.0 -16.000008z" fill-rule="evenodd"/></g><path fill="#000000" fill-opacity="0.0" d="m0 207.98688l288.0 0l0 80.0l-288.0 0z" fill-rule="evenodd"/><path fill="#4a86e8" d="m48.103844 255.94937q-6.765625 0 -10.3125 -3.75q-3.53125 -3.765625 -3.53125 -10.6875q0 -3.4375 1.078125 -6.140625q1.078125 -2.703125 2.953125 -4.5625q1.890625 -1.859375 4.484375 -2.8125q2.609375 -0.96875 5.640625 -0.96875q1.765625 0 3.203125 0.265625q1.4375 0.25 2.515625 0.59375q1.078125 0.34375 1.796875 0.703125q0.734375 0.359375 1.046875 0.5625l-1.796875 5.03125q-1.28125 -0.671875 -2.984375 -1.15625q-1.703125 -0.484375 -3.859375 -0.484375q-1.4375 0 -2.828125 0.484375q-1.375 0.484375 -2.4375 1.546875q-1.046875 1.046875 -1.6875 2.734375q-0.640625 1.671875 -0.640625 4.078125q0 1.921875 0.40625 3.578125q0.421875 1.65625 1.359375 2.859375q0.953125 1.203125 2.46875 1.90625q1.515625 0.703125 3.6875 0.703125q1.359375 0 2.4375 -0.15625q1.078125 -0.171875 1.90625 -0.390625q0.84375 -0.21875 1.484375 -0.5q0.640625 -0.28125 1.171875 -0.515625l1.71875 5.0q-1.328125 0.796875 -3.734375 1.4375q-2.390625 0.640625 -5.546875 0.640625zm32.560608 -11.125q0 2.484375 -0.71875 4.546875q-0.71875 2.0625 -2.09375 3.515625q-1.359375 1.453125 -3.265625 2.265625q-1.890625 0.796875 -4.25 0.796875q-2.3125 0 -4.21875 -0.796875q-1.890625 -0.8125 -3.265625 -2.265625q-1.359375 -1.453125 -2.125 -3.515625q-0.75 -2.0625 -0.75 -4.546875q0 -2.484375 0.78125 -4.515625q0.78125 -2.046875 2.15625 -3.484375q1.390625 -1.4375 3.28125 -2.234375q1.90625 -0.796875 4.140625 -0.796875q2.28125 0 4.171875 0.796875q1.90625 0.796875 3.265625 2.234375q1.359375 1.4375 2.125 3.484375q0.765625 2.03125 0.765625 4.515625zm-6.078125 0q0 -2.75 -1.109375 -4.328125q-1.09375 -1.59375 -3.140625 -1.59375q-2.03125 0 -3.15625 1.59375q-1.125 1.578125 -1.125 4.328125q0 2.765625 1.125 4.390625q1.125 1.609375 3.15625 1.609375q2.046875 0 3.140625 -1.609375q1.109375 -1.625 1.109375 -4.390625zm10.6706085 -9.75q1.515625 -0.453125 3.921875 -0.828125q2.40625 -0.375 5.046875 -0.375q2.671875 0 4.453125 0.703125q1.78125 0.6875 2.8125 1.96875q1.046875 1.28125 1.484375 3.046875q0.4375 1.75 0.4375 3.921875l0 11.875l-5.953125 0l0 -11.15625q0 -2.890625 -0.765625 -4.078125q-0.75 -1.203125 -2.828125 -1.203125q-0.640625 0 -1.375 0.0625q-0.71875 0.0625 -1.265625 0.140625l0 16.234375l-5.96875 0l0 -20.3125zm22.559982 9.796875q0 -2.28125 0.734375 -4.296875q0.75 -2.03125 2.140625 -3.53125q1.40625 -1.5 3.40625 -2.375q2.0 -0.875 4.5625 -0.875q1.671875 0 3.078125 0.296875q1.40625 0.296875 2.71875 0.859375l-1.234375 4.75q-0.84375 -0.3125 -1.84375 -0.546875q-1.0 -0.25 -2.234375 -0.25q-2.640625 0 -3.953125 1.640625q-1.296875 1.640625 -1.296875 4.328125q0 2.828125 1.21875 4.390625q1.21875 1.5625 4.265625 1.5625q1.078125 0 2.3125 -0.1875q1.25 -0.203125 2.28125 -0.65625l0.84375 4.890625q-1.03125 0.4375 -2.59375 0.75q-1.5625 0.328125 -3.4375 0.328125q-2.890625 0 -4.96875 -0.859375q-2.078125 -0.859375 -3.421875 -2.34375q-1.328125 -1.484375 -1.953125 -3.5q-0.625 -2.015625 -0.625 -4.375zm26.968727 10.515625l-5.96875 0l0 -21.046875l5.96875 0l0 21.046875zm0.546875 -27.125q0 1.640625 -1.0625 2.59375q-1.046875 0.9375 -2.484375 0.9375q-1.453125 0 -2.515625 -0.9375q-1.046875 -0.953125 -1.046875 -2.59375q0 -1.640625 1.046875 -2.578125q1.0625 -0.9375 2.515625 -0.9375q1.4375 0 2.484375 0.9375q1.0625 0.9375 1.0625 2.578125zm11.091248 22.84375q1.640625 0 2.3125 -0.3125q0.6875 -0.328125 0.6875 -1.25q0 -0.71875 -0.890625 -1.25q-0.875 -0.546875 -2.671875 -1.21875q-1.40625 -0.53125 -2.546875 -1.078125q-1.140625 -0.5625 -1.9375 -1.34375q-0.796875 -0.78125 -1.234375 -1.859375q-0.4375 -1.09375 -0.4375 -2.609375q0 -2.953125 2.1875 -4.671875q2.203125 -1.71875 6.046875 -1.71875q1.921875 0 3.671875 0.34375q1.765625 0.328125 2.8125 0.734375l-1.046875 4.640625q-1.03125 -0.359375 -2.265625 -0.640625q-1.21875 -0.28125 -2.734375 -0.28125q-2.796875 0 -2.796875 1.5625q0 0.359375 0.109375 0.640625q0.125 0.28125 0.484375 0.546875q0.359375 0.25 0.984375 0.546875q0.625 0.296875 1.578125 0.65625q1.96875 0.71875 3.25 1.421875q1.28125 0.703125 2.015625 1.53125q0.734375 0.8125 1.03125 1.8125q0.3125 1.0 0.3125 2.3125q0 3.125 -2.34375 4.734375q-2.34375 1.59375 -6.625 1.59375q-2.796875 0 -4.65625 -0.484375q-1.859375 -0.484375 -2.578125 -0.796875l1.0 -4.84375q1.515625 0.609375 3.109375 0.953125q1.609375 0.328125 3.171875 0.328125zm12.353088 -6.078125q0 -2.796875 0.859375 -4.890625q0.859375 -2.109375 2.25 -3.5q1.40625 -1.40625 3.21875 -2.125q1.828125 -0.71875 3.75 -0.71875q4.484375 0 7.078125 2.734375q2.609375 2.734375 2.609375 8.0625q0 0.515625 -0.046875 1.140625q-0.03125 0.609375 -0.078125 1.09375l-13.515625 0q0.203125 1.84375 1.71875 2.921875q1.515625 1.078125 4.078125 1.078125q1.640625 0 3.21875 -0.296875q1.578125 -0.296875 2.578125 -0.734375l0.796875 4.828125q-0.46875 0.25 -1.28125 0.484375q-0.796875 0.234375 -1.78125 0.40625q-0.96875 0.1875 -2.09375 0.3125q-1.109375 0.125 -2.234375 0.125q-2.84375 0 -4.953125 -0.84375q-2.09375 -0.84375 -3.46875 -2.296875q-1.375 -1.46875 -2.046875 -3.46875q-0.65625 -2.0 -0.65625 -4.3125zm14.0 -2.28125q-0.03125 -0.765625 -0.265625 -1.484375q-0.21875 -0.71875 -0.671875 -1.265625q-0.453125 -0.5625 -1.15625 -0.921875q-0.703125 -0.375 -1.75 -0.375q-1.0 0 -1.71875 0.34375q-0.71875 0.34375 -1.203125 0.90625q-0.46875 0.5625 -0.734375 1.296875q-0.25 0.734375 -0.375 1.5l7.875 0zm33.006866 13.203125q-6.765625 0 -10.3125 -3.75q-3.53125 -3.765625 -3.53125 -10.6875q0 -3.4375 1.078125 -6.140625q1.078125 -2.703125 2.953125 -4.5625q1.890625 -1.859375 4.484375 -2.8125q2.609375 -0.96875 5.640625 -0.96875q1.765625 0 3.203125 0.265625q1.4375 0.25 2.515625 0.59375q1.078125 0.34375 1.796875 0.703125q0.734375 0.359375 1.046875 0.5625l-1.796875 5.03125q-1.28125 -0.671875 -2.984375 -1.15625q-1.703125 -0.484375 -3.859375 -0.484375q-1.4375 0 -2.828125 0.484375q-1.375 0.484375 -2.4375 1.546875q-1.046875 1.046875 -1.6875 2.734375q-0.640625 1.671875 -0.640625 4.078125q0 1.921875 0.40625 3.578125q0.421875 1.65625 1.359375 2.859375q0.953125 1.203125 2.46875 1.90625q1.515625 0.703125 3.6875 0.703125q1.359375 0 2.4375 -0.15625q1.078125 -0.171875 1.90625 -0.390625q0.84375 -0.21875 1.484375 -0.5q0.640625 -0.28125 1.171875 -0.515625l1.71875 5.0q-1.328125 0.796875 -3.734375 1.4375q-2.390625 0.640625 -5.546875 0.640625zm20.919983 -4.71875q0.875 0 1.671875 -0.03125q0.796875 -0.046875 1.28125 -0.125l0 -4.53125q-0.359375 -0.078125 -1.078125 -0.15625q-0.71875 -0.078125 -1.3125 -0.078125q-0.84375 0 -1.59375 0.109375q-0.734375 0.09375 -1.296875 0.375q-0.5625 0.28125 -0.890625 0.765625q-0.3125 0.46875 -0.3125 1.1875q0 1.40625 0.9375 1.953125q0.953125 0.53125 2.59375 0.53125zm-0.484375 -17.4375q2.640625 0 4.390625 0.59375q1.765625 0.59375 2.828125 1.71875q1.0625 1.125 1.5 2.734375q0.4375 1.59375 0.4375 3.546875l0 12.40625q-1.28125 0.28125 -3.5625 0.65625q-2.265625 0.375 -5.515625 0.375q-2.03125 0 -3.703125 -0.359375q-1.65625 -0.359375 -2.859375 -1.171875q-1.1875 -0.828125 -1.828125 -2.140625q-0.640625 -1.328125 -0.640625 -3.25q0 -1.828125 0.734375 -3.109375q0.734375 -1.28125 1.96875 -2.046875q1.25 -0.765625 2.84375 -1.09375q1.609375 -0.34375 3.328125 -0.34375q1.15625 0 2.046875 0.109375q0.90625 0.09375 1.46875 0.25l0 -0.5625q0 -1.515625 -0.921875 -2.4375q-0.921875 -0.921875 -3.1875 -0.921875q-1.53125 0 -3.015625 0.21875q-1.46875 0.21875 -2.546875 0.625l-0.765625 -4.796875q0.515625 -0.171875 1.296875 -0.34375q0.78125 -0.1875 1.703125 -0.328125q0.921875 -0.140625 1.9375 -0.234375q1.015625 -0.09375 2.0625 -0.09375zm14.35434 -4.6875l5.96875 -0.953125l0 6.1875l7.15625 0l0 4.96875l-7.15625 0l0 7.390625q0 1.890625 0.65625 3.015625q0.65625 1.109375 2.65625 1.109375q0.96875 0 1.984375 -0.171875q1.015625 -0.1875 1.859375 -0.5l0.84375 4.640625q-1.078125 0.4375 -2.40625 0.75q-1.3125 0.328125 -3.234375 0.328125q-2.4375 0 -4.046875 -0.65625q-1.59375 -0.671875 -2.5625 -1.84375q-0.953125 -1.1875 -1.34375 -2.859375q-0.375 -1.6875 -0.375 -3.71875l0 -17.6875z" fill-rule="nonzero"/></g></svg>