<svg version="1.1" viewBox="0.0 0.0 192.0 192.0" fill="none" stroke="none" stroke-linecap="square" stroke-miterlimit="10" xmlns:xlink="http://www.w3.org/1999/xlink" xmlns="http://www.w3.org/2000/svg"><clipPath id="p.0"><path d="m0 0l192.0 0l0 192.0l-192.0 0l0 -192.0z" clip-rule="nonzero"/></clipPath><g clip-path="url(#p.0)"><path fill="#000000" fill-opacity="0.0" d="m0 0l192.0 0l0 192.0l-192.0 0z" fill-rule="evenodd"/><g filter="url(#shadowFilter-p.1)"><use xlink:href="#p.1" transform="matrix(1.0 0.0 0.0 1.0 0.0 2.0)"/></g><defs><filter id="shadowFilter-p.1" filterUnits="userSpaceOnUse"><feGaussianBlur in="SourceAlpha" stdDeviation="2.0" result="blur"/><feComponentTransfer in="blur" color-interpolation-filters="sRGB"><feFuncR type="linear" slope="0" intercept="0.0"/><feFuncG type="linear" slope="0" intercept="0.0"/><feFuncB type="linear" slope="0" intercept="0.0"/><feFuncA type="linear" slope="0.5" intercept="0"/></feComponentTransfer></filter></defs><g id="p.1"><path fill="#000000" fill-opacity="0.0" d="m96.0 16.0l-80.0 80.0" fill-rule="evenodd"/><path stroke="#4a86e8" stroke-width="16.0" stroke-linejoin="round" stroke-linecap="butt" d="m96.0 16.0l-80.0 80.0" fill-rule="evenodd"/></g><g filter="url(#shadowFilter-p.2)"><use xlink:href="#p.2" transform="matrix(1.0 0.0 0.0 1.0 0.0 2.0)"/></g><defs><filter id="shadowFilter-p.2" filterUnits="userSpaceOnUse"><feGaussianBlur in="SourceAlpha" stdDeviation="2.0" result="blur"/><feComponentTransfer in="blur" color-interpolation-filters="sRGB"><feFuncR type="linear" slope="0" intercept="0.0"/><feFuncG type="linear" slope="0" intercept="0.0"/><feFuncB type="linear" slope="0" intercept="0.0"/><feFuncA type="linear" slope="0.5" intercept="0"/></feComponentTransfer></filter></defs><g id="p.2"><path fill="#000000" fill-opacity="0.0" d="m16.0 96.0l80.0 80.0" fill-rule="evenodd"/><path stroke="#4a86e8" stroke-width="16.0" stroke-linejoin="round" stroke-linecap="butt" d="m16.0 96.0l80.0 80.0" fill-rule="evenodd"/></g><g filter="url(#shadowFilter-p.3)"><use xlink:href="#p.3" transform="matrix(1.0 0.0 0.0 1.0 0.0 2.0)"/></g><defs><filter id="shadowFilter-p.3" filterUnits="userSpaceOnUse"><feGaussianBlur in="SourceAlpha" stdDeviation="2.0" result="blur"/><feComponentTransfer in="blur" color-interpolation-filters="sRGB"><feFuncR type="linear" slope="0" intercept="0.0"/><feFuncG type="linear" slope="0" intercept="0.0"/><feFuncB type="linear" slope="0" intercept="0.0"/><feFuncA type="linear" slope="0.5" intercept="0"/></feComponentTransfer></filter></defs><g id="p.3"><path fill="#000000" fill-opacity="0.0" d="m96.0 96.0l80.0 -80.0" fill-rule="evenodd"/><path stroke="#4a86e8" stroke-width="16.0" stroke-linejoin="round" stroke-linecap="butt" d="m96.0 96.0l80.0 -80.0" fill-rule="evenodd"/></g><g filter="url(#shadowFilter-p.4)"><use xlink:href="#p.4" transform="matrix(1.0 0.0 0.0 1.0 0.0 2.0)"/></g><defs><filter id="shadowFilter-p.4" filterUnits="userSpaceOnUse"><feGaussianBlur in="SourceAlpha" stdDeviation="2.0" result="blur"/><feComponentTransfer in="blur" color-interpolation-filters="sRGB"><feFuncR type="linear" slope="0" intercept="0.0"/><feFuncG type="linear" slope="0" intercept="0.0"/><feFuncB type="linear" slope="0" intercept="0.0"/><feFuncA type="linear" slope="0.5" intercept="0"/></feComponentTransfer></filter></defs><g id="p.4"><path fill="#000000" fill-opacity="0.0" d="m96.0 96.0l80.0 80.0" fill-rule="evenodd"/><path stroke="#4a86e8" stroke-width="16.0" stroke-linejoin="round" stroke-linecap="butt" d="m96.0 96.0l80.0 80.0" fill-rule="evenodd"/></g><g filter="url(#shadowFilter-p.5)"><use xlink:href="#p.5" transform="matrix(1.0 0.0 0.0 1.0 0.0 2.0)"/></g><defs><filter id="shadowFilter-p.5" filterUnits="userSpaceOnUse"><feGaussianBlur in="SourceAlpha" stdDeviation="2.0" result="blur"/><feComponentTransfer in="blur" color-interpolation-filters="sRGB"><feFuncR type="linear" slope="0" intercept="0.0"/><feFuncG type="linear" slope="0" intercept="0.0"/><feFuncB type="linear" slope="0" intercept="0.0"/><feFuncA type="linear" slope="0.5" intercept="0"/></feComponentTransfer></filter></defs><g id="p.5"><path fill="#4a86e8" d="m80.0 16.0l0 0c0 -8.8365555 7.1634445 -16.0 16.0 -16.0l0 0c4.2434616 0 8.313126 1.6857095 11.313705 4.6862917c3.0005875 3.0005817 4.6862946 7.070245 4.6862946 11.313708l0 0c0 8.8365555 -7.1634445 16.0 -16.0 16.0l0 0c-8.8365555 0 -16.0 -7.1634445 -16.0 -16.0z" fill-rule="evenodd"/></g><g filter="url(#shadowFilter-p.6)"><use xlink:href="#p.6" transform="matrix(1.0 0.0 0.0 1.0 0.0 2.0)"/></g><defs><filter id="shadowFilter-p.6" filterUnits="userSpaceOnUse"><feGaussianBlur in="SourceAlpha" stdDeviation="2.0" result="blur"/><feComponentTransfer in="blur" color-interpolation-filters="sRGB"><feFuncR type="linear" slope="0" intercept="0.0"/><feFuncG type="linear" slope="0" intercept="0.0"/><feFuncB type="linear" slope="0" intercept="0.0"/><feFuncA type="linear" slope="0.5" intercept="0"/></feComponentTransfer></filter></defs><g id="p.6"><path fill="#4a86e8" d="m80.0 176.0l0 0c0 -8.836563 7.1634445 -16.0 16.0 -16.0l0 0c4.2434616 0 8.313126 1.6857147 11.313705 4.6862946c3.0005875 3.0005798 4.6862946 7.070236 4.6862946 11.313705l0 0c0 8.836563 -7.1634445 16.0 -16.0 16.0l0 0c-8.8365555 0 -16.0 -7.163437 -16.0 -16.0z" fill-rule="evenodd"/></g><g filter="url(#shadowFilter-p.7)"><use xlink:href="#p.7" transform="matrix(1.0 0.0 0.0 1.0 0.0 2.0)"/></g><defs><filter id="shadowFilter-p.7" filterUnits="userSpaceOnUse"><feGaussianBlur in="SourceAlpha" stdDeviation="2.0" result="blur"/><feComponentTransfer in="blur" color-interpolation-filters="sRGB"><feFuncR type="linear" slope="0" intercept="0.0"/><feFuncG type="linear" slope="0" intercept="0.0"/><feFuncB type="linear" slope="0" intercept="0.0"/><feFuncA type="linear" slope="0.5" intercept="0"/></feComponentTransfer></filter></defs><g id="p.7"><path fill="#4a86e8" d="m160.0 16.0l0 0c0 -8.8365555 7.163437 -16.0 16.0 -16.0l0 0c4.243469 0 8.313126 1.6857095 11.313705 4.6862917c3.0005798 3.0005817 4.6862946 7.070245 4.6862946 11.313708l0 0c0 8.8365555 -7.163437 16.0 -16.0 16.0l0 0c-8.836563 0 -16.0 -7.1634445 -16.0 -16.0z" fill-rule="evenodd"/></g><g filter="url(#shadowFilter-p.8)"><use xlink:href="#p.8" transform="matrix(1.0 0.0 0.0 1.0 0.0 2.0)"/></g><defs><filter id="shadowFilter-p.8" filterUnits="userSpaceOnUse"><feGaussianBlur in="SourceAlpha" stdDeviation="2.0" result="blur"/><feComponentTransfer in="blur" color-interpolation-filters="sRGB"><feFuncR type="linear" slope="0" intercept="0.0"/><feFuncG type="linear" slope="0" intercept="0.0"/><feFuncB type="linear" slope="0" intercept="0.0"/><feFuncA type="linear" slope="0.5" intercept="0"/></feComponentTransfer></filter></defs><g id="p.8"><path fill="#4a86e8" d="m160.0 176.0l0 0c0 -8.836563 7.163437 -16.0 16.0 -16.0l0 0c4.243469 0 8.313126 1.6857147 11.313705 4.6862946c3.0005798 3.0005798 4.6862946 7.070236 4.6862946 11.313705l0 0c0 8.836563 -7.163437 16.0 -16.0 16.0l0 0c-8.836563 0 -16.0 -7.163437 -16.0 -16.0z" fill-rule="evenodd"/></g><g filter="url(#shadowFilter-p.9)"><use xlink:href="#p.9" transform="matrix(1.0 0.0 0.0 1.0 0.0 2.0)"/></g><defs><filter id="shadowFilter-p.9" filterUnits="userSpaceOnUse"><feGaussianBlur in="SourceAlpha" stdDeviation="2.0" result="blur"/><feComponentTransfer in="blur" color-interpolation-filters="sRGB"><feFuncR type="linear" slope="0" intercept="0.0"/><feFuncG type="linear" slope="0" intercept="0.0"/><feFuncB type="linear" slope="0" intercept="0.0"/><feFuncA type="linear" slope="0.5" intercept="0"/></feComponentTransfer></filter></defs><g id="p.9"><path fill="#4a86e8" d="m0 96.0l0 0c0 -8.8365555 7.163444 -16.0 16.0 -16.0l0 0c4.2434635 0 8.313126 1.6857071 11.313709 4.6862946c3.0005817 3.0005798 4.6862907 7.070244 4.6862907 11.313705l0 0c0 8.8365555 -7.1634445 16.0 -16.0 16.0l0 0c-8.8365555 0 -16.0 -7.1634445 -16.0 -16.0z" fill-rule="evenodd"/></g><g filter="url(#shadowFilter-p.10)"><use xlink:href="#p.10" transform="matrix(1.0 0.0 0.0 1.0 0.0 2.0)"/></g><defs><filter id="shadowFilter-p.10" filterUnits="userSpaceOnUse"><feGaussianBlur in="SourceAlpha" stdDeviation="2.0" result="blur"/><feComponentTransfer in="blur" color-interpolation-filters="sRGB"><feFuncR type="linear" slope="0" intercept="0.0"/><feFuncG type="linear" slope="0" intercept="0.0"/><feFuncB type="linear" slope="0" intercept="0.0"/><feFuncA type="linear" slope="0.5" intercept="0"/></feComponentTransfer></filter></defs><g id="p.10"><path fill="#4a86e8" d="m80.0 96.0l0 0c0 -8.8365555 7.1634445 -16.0 16.0 -16.0l0 0c4.2434616 0 8.313126 1.6857071 11.313705 4.6862946c3.0005875 3.0005798 4.6862946 7.070244 4.6862946 11.313705l0 0c0 8.8365555 -7.1634445 16.0 -16.0 16.0l0 0c-8.8365555 0 -16.0 -7.1634445 -16.0 -16.0z" fill-rule="evenodd"/></g></g></svg>